Coordinates
version=1
nRows=4
nColumns=40
inDegrees=yes

Units are S.I. units (second, meters, Newtons, ...)
If the header above contains a line with 'inDegrees', this indicates whether rotational values are in degrees (yes) or radians (no).

endheader
time	pelvis_tilt	pelvis_list	pelvis_rotation	pelvis_tx	pelvis_ty	pelvis_tz	hip_flexion_r	hip_adduction_r	hip_rotation_r	knee_angle_r	knee_angle_r_beta	ankle_angle_r	subtalar_angle_r	mtp_angle_r	hip_flexion_l	hip_adduction_l	hip_rotation_l	knee_angle_l	knee_angle_l_beta	ankle_angle_l	subtalar_angle_l	mtp_angle_l	lumbar_extension	lumbar_bending	lumbar_rotation	arm_flex_r	arm_add_r	arm_rot_r	elbow_flex_r	pro_sup_r	wrist_flex_r	wrist_dev_r	arm_flex_l	arm_add_l	arm_rot_l	elbow_flex_l	pro_sup_l	wrist_flex_l	wrist_dev_l
      8.50000000000000000000	     -4.80261439300909565020	     -4.22457189753043937941	   -171.65967023754978981742	      0.21511254473034563395	      0.93315498165208432546	     -0.59449515558150178851	      5.78009539296812224762	    -15.68123702098115934689	    -24.36799803870762914926	     16.81172248235366240010	      0.29341991024862573711	      2.45943731761164974259	      0.00000000000000000000	      0.00000000000000000000	      8.20638525036434529625	     -3.00488118982923468891	    -10.06260198102530090125	     15.13518530558276253828	      0.26415881648188332953	      1.49867330079398741738	      0.00000000000000000000	      0.00000000000000000000	    -17.95146317311520789417	     -1.82147762166247839666	    -10.62488822671270227715	      0.00000000000000000000	    -14.56756307039476006082	      0.00000000000000000000	     75.02828033174972688357	     44.99996571645576182163	      0.00000000000000000000	      0.00000000000000000000	      0.00000000000000000000	    -14.56756307039476006082	      0.00000000000000000000	     75.02828033174972688357	     44.99996571645576182163	      0.00000000000000000000	      0.00000000000000000000
      8.50500000000000078160	     -5.34640201511571788728	     -4.35042439577489581382	   -171.77422838902865009914	      0.21482837762242887325	      0.93413938984771482943	     -0.59446317536470250076	      5.03812990538499771986	    -15.67024748395554567537	    -24.36874546530922103216	     16.52756152371058817607	      0.28846036591468060539	      2.32900128275558815361	      0.00000000000000000000	      0.00000000000000000000	      7.39077695024887759701	     -2.91633316728240998827	    -10.16888288788175565003	     14.78698570061446027069	      0.25808158692104282705	      1.33453315615105050362	      0.00000000000000000000	      0.00000000000000000000	    -18.29085220073823236930	     -1.90980394096340067023	    -10.55436611395665202906	      0.00000000000000000000	    -14.57042110334835882668	      0.00000000000000000000	     75.02794348866906659623	     44.99996666241554521548	      0.00000000000000000000	      0.00000000000000000000	      0.00000000000000000000	    -14.57042110334835882668	      0.00000000000000000000	     75.02794348866906659623	     44.99996666241554521548	      0.00000000000000000000	      0.00000000000000000000
      8.50999999999999978684	     -5.53091581124385545110	     -4.40770674747762924994	   -171.90823782952989517980	      0.21463037705530049748	      0.93443172768213067503	     -0.59451122616715346147	      4.83292021153198625427	    -15.68312719587172665570	    -24.25490433306879722863	     16.47957463475104944450	      0.28762283670454774631	      2.32086543924270749528	      0.00000000000000000000	      0.00000000000000000000	      7.08831732870805719671	     -2.88021491847313848567	    -10.28267841258927894899	     14.66187371347077217365	      0.25589797081167264814	      1.32953390413044636453	      0.00000000000000000000	      0.00000000000000000000	    -18.20349608165528465520	     -2.00921432311241643376	    -10.41784283086474438562	      0.00000000000000000000	    -14.57256308065993266609	      0.00000000000000000000	     75.02770207523242618208	     44.99996725151933674169	      0.00000000000000000000	      0.00000000000000000000	      0.00000000000000000000	    -14.57256308065993266609	      0.00000000000000000000	     75.02770207523242618208	     44.99996725151933674169	      0.00000000000000000000	      0.00000000000000000000
      8.51500000000000056843	     -5.72566271684802430286	     -4.35706148427836303938	   -171.88454352343202913289	      0.21446816110018418478	      0.93459411100066258626	     -0.59430209109441334281	      4.52853755013675662866	    -15.59402420201719152715	    -24.39811649861117359706	     16.35299494065242598140	      0.28541360427635953378	      2.32787452692405327781	      0.00000000000000000000	      0.00000000000000000000	      6.95215348699298907320	     -2.96847972374147106578	    -10.25057148805673534753	     14.83007975104270670386	      0.25883371998903620392	      1.44809785135889446117	      0.00000000000000000000	      0.00000000000000000000	    -18.12286154766195878096	     -1.93539077958749916597	    -10.40789503702881191316	      0.00000000000000000000	    -14.57719703335535754718	      0.00000000000000000000	     75.02718813785547524731	     44.99996845865339167858	      0.00000000000000000000	      0.00000000000000000000	      0.00000000000000000000	    -14.57719703335535754718	      0.00000000000000000000	     75.02718813785547524731	     44.99996845865339167858	      0.00000000000000000000	      0.00000000000000000000
